<svg width="186" height="159" viewBox="0 0 186 159" fill="none" xmlns="http://www.w3.org/2000/svg">
<path d="M29.0365 0.499778C35.2671 0.499778 39.7141 2.0705 42.3776 5.21195C44.3276 7.59183 45.3026 10.5667 45.3026 14.1365C45.3026 15.4216 45.1837 16.7782 44.9459 18.2061L42.1636 34.1275C41.2123 39.5061 38.8818 43.8137 35.172 47.0503C31.4622 50.2869 26.6584 51.9053 20.7607 51.9053H0L9.06053 0.499778H29.0365ZM24.5419 11.6376H19.9046L14.8393 40.7674H21.6169C23.8523 40.7674 25.5883 40.1724 26.8249 38.9825C28.109 37.7449 28.9889 35.7458 29.4646 32.9852L31.5335 21.2762C31.7237 20.229 31.8189 19.2771 31.8189 18.4203C31.8189 13.8985 29.3932 11.6376 24.5419 11.6376Z" fill="white"/>
<path d="M74.4066 0C85.869 0 91.6002 4.68837 91.6002 14.0651C91.6002 15.6358 91.4337 17.3256 91.1008 19.1343L88.6038 33.4136C87.4623 40.0296 84.9891 44.9322 81.1841 48.1212C77.3792 51.3103 72.0285 52.9048 65.132 52.9048C58.2356 52.9048 53.4318 51.3103 50.7208 48.1212C48.8659 45.9317 47.9384 42.9093 47.9384 39.0539C47.9384 37.3404 48.1287 35.4603 48.5092 33.4136L51.0062 19.1343C53.2416 6.37809 61.0417 0 74.4066 0ZM67.0583 41.8383C69.4364 41.8383 71.3388 41.2196 72.7657 39.982C74.1926 38.7445 75.1914 36.4598 75.7621 33.128L78.1877 19.4198C78.3304 18.4679 78.4018 17.6111 78.4018 16.8496C78.4018 12.9942 76.4517 11.0665 72.5517 11.0665C67.6528 11.1617 64.7277 13.9461 63.7765 19.4198L61.3509 33.128C61.1606 34.3179 61.0655 35.5555 61.0655 36.8406C61.0655 40.1724 63.0631 41.8383 67.0583 41.8383Z" fill="white"/>
<path d="M24.8273 72.1105L36.8842 54.0471H49.7259L27.7523 85.6758L24.2565 105.453H11.3435L14.8393 85.6758L3.99519 54.0471H17.6217L23.1864 72.1105H24.8273Z" fill="white"/>
<path d="M70.4354 53.5474C81.8978 53.5474 87.629 58.2357 87.629 67.6125C87.629 69.1832 87.4625 70.8729 87.1296 72.6816L84.6326 86.9609C83.4911 93.577 81.0179 98.4796 77.2129 101.669C73.408 104.858 68.0573 106.452 61.1608 106.452C54.2643 106.452 49.4606 104.858 46.7496 101.669C44.8946 99.4791 43.9672 96.4567 43.9672 92.6013C43.9672 90.8877 44.1574 89.0076 44.5379 86.9609L47.0349 72.6816C49.2703 59.9255 57.0705 53.5474 70.4354 53.5474ZM63.087 95.3857C65.4651 95.3857 67.3676 94.767 68.7945 93.5294C70.2213 92.2919 71.2201 90.0072 71.7909 86.6754L74.2165 72.9672C74.3592 72.0153 74.4305 71.1585 74.4305 70.3969C74.4305 66.5415 72.4805 64.6138 68.5804 64.6138C63.6816 64.709 60.7565 67.4935 59.8053 72.9672L57.3796 86.6754C57.1894 87.8653 57.0943 89.1028 57.0943 90.388C57.0943 93.7198 59.0919 95.3857 63.087 95.3857Z" fill="white"/>
<path d="M124.375 101.74C120.618 104.881 115.291 106.452 108.394 106.452C101.498 106.452 96.7177 104.858 94.0543 101.669C92.1518 99.4791 91.2005 96.4567 91.2005 92.6013C91.2005 90.8877 91.3908 89.0076 91.7713 86.9609L97.5501 54.0471H110.392L104.613 86.6754C104.423 87.8653 104.328 89.1028 104.328 90.388C104.328 93.7198 106.325 95.3857 110.32 95.3857C112.699 95.3857 114.601 94.767 116.028 93.5294C117.455 92.2919 118.453 90.0072 119.024 86.6754L124.803 54.0471H137.645L131.866 86.9609C130.677 93.6246 128.18 98.551 124.375 101.74Z" fill="white"/>
<path d="M166.996 54.0471C172.418 54.0471 176.27 55.2371 178.553 57.617C180.265 59.4257 181.121 61.7104 181.121 64.471C181.121 65.423 181.026 66.4225 180.836 67.4697L179.837 73.0386C179.266 76.1325 178.268 78.6313 176.841 80.5352C175.462 82.4392 173.916 83.7957 172.204 84.6049L178.696 105.453H164.285L158.292 86.247H153.868L150.943 105.453H137.246L146.306 54.0471H166.996ZM162.501 65.185H157.15L155.295 77.608H160.289C162.81 77.608 164.617 77.013 165.711 75.8231C166.805 74.5855 167.352 72.9672 167.352 70.9681C167.352 67.1127 165.735 65.185 162.501 65.185Z" fill="white"/>
<path d="M24.1138 143.364H15.6241L12.8417 159H0L9.06053 107.595H30.8201C36.1946 107.595 40.0233 108.832 42.3063 111.307C43.9709 113.211 44.8032 115.639 44.8032 118.59C44.8032 119.589 44.7081 120.636 44.5179 121.731L43.091 129.799C42.3776 133.749 40.2849 137.01 36.8129 139.58C33.3408 142.103 29.1078 143.364 24.1138 143.364ZM26.3255 118.732H19.9046L17.5503 132.226H23.8998C27.7999 132.226 30.0591 130.489 30.6774 127.014L31.1768 124.087C31.2719 123.659 31.3195 123.088 31.3195 122.374C31.3195 121.66 30.9628 120.874 30.2493 120.018C29.5359 119.161 28.2279 118.732 26.3255 118.732Z" fill="white"/>
<path d="M68.8474 159L69.2755 147.791H57.3612L53.8654 159H40.239L58.5741 107.595H82.1172L82.4025 159H68.8474ZM65.9224 120.089L60.2863 138.224H69.6322L70.417 120.089H65.9224Z" fill="white"/>
<path d="M117.833 107.595C123.255 107.595 127.108 108.784 129.391 111.164C131.103 112.973 131.959 115.258 131.959 118.018C131.959 118.97 131.864 119.97 131.674 121.017L130.675 126.586C130.104 129.68 129.105 132.179 127.678 134.083C126.299 135.987 124.753 137.343 123.041 138.152L129.533 159H115.122L109.129 139.794H104.706L101.781 159H88.0832L97.1437 107.595H117.833ZM113.339 118.732H107.988L106.133 131.155H111.127C113.648 131.155 115.455 130.56 116.549 129.37C117.643 128.133 118.19 126.515 118.19 124.515C118.19 120.66 116.573 118.732 113.339 118.732Z" fill="white"/>
<path d="M184.002 118.732H166.452L159.389 159H146.476L153.539 118.732H135.917L137.915 107.595H186L184.002 118.732Z" fill="white"/>
</svg>
