<svg width="186" height="159" fill="none" xmlns="http://www.w3.org/2000/svg"><path d="M29.037.5c6.23 0 10.677 1.57 13.34 4.712 1.95 2.38 2.926 5.355 2.926 8.925 0 1.285-.12 2.641-.357 4.07l-2.782 15.92c-.952 5.38-3.282 9.687-6.992 12.923-3.71 3.237-8.514 4.855-14.411 4.855H0L9.06.5h19.977zm-4.495 11.138h-4.637l-5.066 29.13h6.778c2.235 0 3.971-.596 5.208-1.785 1.284-1.238 2.164-3.237 2.64-5.998l2.069-11.709c.19-1.047.285-1.999.285-2.856 0-4.522-2.426-6.782-7.277-6.782zM74.407 0C85.869 0 91.6 4.688 91.6 14.065c0 1.57-.166 3.26-.5 5.07l-2.496 14.279c-1.142 6.616-3.615 11.518-7.42 14.707-3.805 3.19-9.156 4.784-16.052 4.784-6.896 0-11.7-1.595-14.411-4.784-1.855-2.19-2.783-5.212-2.783-9.067 0-1.714.19-3.594.571-5.64l2.497-14.28C53.242 6.378 61.042 0 74.406 0zm-7.349 41.838c2.378 0 4.28-.618 5.708-1.856 1.427-1.237 2.425-3.522 2.996-6.854l2.426-13.708c.142-.952.214-1.809.214-2.57 0-3.856-1.95-5.784-5.85-5.784-4.9.096-7.824 2.88-8.776 8.354l-2.425 13.708a23.486 23.486 0 0 0-.285 3.713c0 3.331 1.997 4.997 5.992 4.997zM24.827 72.11l12.057-18.063h12.842L27.752 85.676l-3.495 19.777H11.342l3.496-19.777L3.995 54.047h13.627l5.564 18.064h1.641zM70.435 53.547c11.463 0 17.194 4.689 17.194 14.066 0 1.57-.166 3.26-.5 5.069L84.634 86.96c-1.142 6.616-3.615 11.519-7.42 14.708-3.805 3.189-9.156 4.783-16.052 4.783-6.897 0-11.7-1.594-14.411-4.783-1.855-2.19-2.783-5.212-2.783-9.068 0-1.713.19-3.593.57-5.64l2.498-14.28c2.235-12.755 10.036-19.134 23.4-19.134zm-7.348 41.839c2.378 0 4.28-.619 5.707-1.857 1.427-1.237 2.426-3.522 2.997-6.854l2.425-13.708c.143-.952.215-1.808.215-2.57 0-3.856-1.95-5.783-5.85-5.783-4.9.095-7.825 2.88-8.776 8.353L57.38 86.675a23.497 23.497 0 0 0-.286 3.713c0 3.332 1.998 4.998 5.993 4.998zM124.375 101.74c-3.757 3.141-9.084 4.712-15.981 4.712-6.896 0-11.676-1.594-14.34-4.783-1.902-2.19-2.853-5.212-2.853-9.068 0-1.713.19-3.593.57-5.64l5.78-32.914h12.841l-5.779 32.628a23.522 23.522 0 0 0-.285 3.713c0 3.332 1.997 4.998 5.992 4.998 2.379 0 4.281-.619 5.708-1.857 1.427-1.237 2.425-3.522 2.996-6.854l5.779-32.628h12.842l-5.779 32.914c-1.189 6.664-3.686 11.59-7.491 14.779zM166.996 54.047c5.422 0 9.274 1.19 11.557 3.57 1.712 1.809 2.568 4.093 2.568 6.854 0 .952-.095 1.951-.285 2.999l-.999 5.569c-.571 3.093-1.569 5.592-2.996 7.496-1.379 1.904-2.925 3.26-4.637 4.07l6.492 20.848h-14.411l-5.993-19.206h-4.424l-2.925 19.206h-13.697l9.06-51.406h20.69zm-4.495 11.138h-5.351l-1.855 12.423h4.994c2.521 0 4.328-.595 5.422-1.785 1.094-1.237 1.641-2.856 1.641-4.855 0-3.855-1.617-5.783-4.851-5.783zM24.114 143.364h-8.49L12.842 159H0l9.06-51.405h21.76c5.375 0 9.203 1.237 11.486 3.712 1.665 1.904 2.497 4.332 2.497 7.283 0 .999-.095 2.046-.285 3.141l-1.427 8.068c-.713 3.95-2.806 7.211-6.278 9.781-3.472 2.523-7.705 3.784-12.7 3.784zm2.212-24.632h-6.421l-2.355 13.494h6.35c3.9 0 6.16-1.737 6.777-5.212l.5-2.927c.095-.428.143-.999.143-1.713 0-.714-.357-1.5-1.07-2.356-.714-.857-2.022-1.286-3.924-1.286zM68.847 159l.428-11.209H57.361L53.865 159H40.24l18.335-51.405h23.543L82.402 159H68.847zm-2.925-38.911-5.636 18.135h9.346l.785-18.135h-4.495zM117.833 107.595c5.422 0 9.275 1.189 11.558 3.569 1.712 1.809 2.568 4.094 2.568 6.854 0 .952-.095 1.952-.285 2.999l-.999 5.569c-.571 3.094-1.57 5.593-2.997 7.497-1.379 1.904-2.925 3.26-4.637 4.069L129.533 159h-14.411l-5.993-19.206h-4.423L101.781 159H88.083l9.06-51.405h20.69zm-4.494 11.137h-5.351l-1.855 12.423h4.994c2.521 0 4.328-.595 5.422-1.785 1.094-1.237 1.641-2.855 1.641-4.855 0-3.855-1.617-5.783-4.851-5.783zM184.002 118.732h-17.55L159.389 159h-12.913l7.063-40.268h-17.622l1.998-11.137H186l-1.998 11.137z" fill="#fff"/></svg>